<?xml version="1.0" encoding="UTF-8" standalone="no"?>
<!DOCTYPE svg PUBLIC "-//W3C//DTD SVG 1.1//EN" "http://www.w3.org/Graphics/SVG/1.1/DTD/svg11.dtd">
<svg width="100%" height="100%" viewBox="0 0 1527 581" version="1.1" xmlns="http://www.w3.org/2000/svg" xmlns:xlink="http://www.w3.org/1999/xlink" xml:space="preserve" xmlns:serif="http://www.serif.com/" style="fill-rule:evenodd;clip-rule:evenodd;stroke-linejoin:round;stroke-miterlimit:2;">
    <g transform="matrix(1.49593,0,0,1.49593,-159.56,-370.234)">
        <g transform="matrix(367.832,0,0,367.832,143.482,492.656)">
            <path d="M0.461,-0.367L0.56,-0.605C0.571,-0.632 0.582,-0.649 0.592,-0.656C0.603,-0.663 0.623,-0.667 0.652,-0.667L0.904,-0.667C0.949,-0.667 0.972,-0.651 0.972,-0.621C0.972,-0.6 0.964,-0.584 0.949,-0.57C0.935,-0.557 0.916,-0.55 0.895,-0.55L0.673,-0.55L0.599,-0.367L0.673,-0.367C0.709,-0.367 0.728,-0.351 0.728,-0.319C0.728,-0.3 0.72,-0.284 0.705,-0.27C0.69,-0.257 0.672,-0.25 0.65,-0.25L0.552,-0.25L0.443,0.017L0.793,0.017C0.83,0.017 0.848,0.032 0.848,0.063C0.848,0.083 0.841,0.1 0.826,0.113C0.811,0.127 0.793,0.133 0.771,0.133L0.396,0.133L0.39,0.147C0.367,0.198 0.349,0.233 0.336,0.254C0.323,0.274 0.306,0.294 0.286,0.313C0.231,0.363 0.169,0.388 0.098,0.388C0.041,0.388 -0.007,0.371 -0.044,0.337C-0.081,0.303 -0.1,0.259 -0.1,0.207C-0.1,0.174 -0.092,0.143 -0.076,0.114C-0.06,0.086 -0.039,0.063 -0.011,0.047C0.024,0.027 0.072,0.017 0.133,0.017L0.306,0.017L0.414,-0.25L0.398,-0.25C0.361,-0.25 0.343,-0.266 0.343,-0.298C0.343,-0.317 0.351,-0.333 0.366,-0.347C0.381,-0.36 0.399,-0.367 0.42,-0.367L0.461,-0.367ZM0.258,0.133L0.129,0.133C0.066,0.133 0.034,0.156 0.034,0.201C0.034,0.22 0.041,0.235 0.055,0.248C0.069,0.26 0.087,0.267 0.107,0.267C0.137,0.267 0.165,0.255 0.192,0.231C0.219,0.207 0.241,0.175 0.258,0.133Z" style="fill:white;fill-rule:nonzero;"/>
        </g>
        <g transform="matrix(367.832,0,0,367.832,421.082,492.656)">
            <path d="M0.24,0.233L0.293,0.233C0.335,0.233 0.355,0.248 0.355,0.277C0.355,0.297 0.348,0.313 0.334,0.323C0.319,0.334 0.299,0.34 0.272,0.34L0.182,0.34C0.16,0.34 0.142,0.334 0.128,0.323C0.115,0.312 0.108,0.298 0.108,0.28C0.108,0.267 0.112,0.249 0.122,0.227L0.222,-0.021C0.205,-0.007 0.184,-0 0.161,-0C0.128,-0 0.101,-0.012 0.079,-0.037C0.058,-0.062 0.047,-0.093 0.047,-0.13C0.047,-0.165 0.055,-0.2 0.07,-0.236C0.086,-0.272 0.105,-0.302 0.129,-0.325C0.168,-0.362 0.215,-0.38 0.268,-0.38C0.312,-0.38 0.349,-0.368 0.377,-0.342C0.405,-0.316 0.419,-0.283 0.419,-0.243C0.419,-0.22 0.413,-0.193 0.4,-0.162L0.24,0.233ZM0.266,-0.129L0.3,-0.212C0.303,-0.222 0.305,-0.23 0.305,-0.239C0.305,-0.249 0.301,-0.257 0.292,-0.264C0.283,-0.271 0.272,-0.274 0.259,-0.274C0.237,-0.274 0.216,-0.261 0.196,-0.236C0.176,-0.21 0.166,-0.184 0.166,-0.155C0.166,-0.123 0.183,-0.107 0.217,-0.107C0.227,-0.107 0.237,-0.11 0.247,-0.114C0.258,-0.119 0.264,-0.124 0.266,-0.129Z" style="fill:white;fill-rule:nonzero;"/>
        </g>
        <g transform="matrix(367.832,0,0,367.832,562.002,492.656)">
            <path d="M0.39,-0.106L0.447,-0.106C0.469,-0.106 0.485,-0.103 0.495,-0.096C0.504,-0.09 0.509,-0.079 0.509,-0.063C0.509,-0.044 0.502,-0.028 0.487,-0.017C0.473,-0.006 0.452,-0 0.426,-0L0.339,-0C0.312,-0 0.293,-0.011 0.284,-0.032C0.266,-0.011 0.244,-0 0.217,-0L0.146,-0C0.117,-0 0.093,-0.009 0.074,-0.027C0.055,-0.045 0.046,-0.067 0.046,-0.095C0.046,-0.11 0.05,-0.129 0.059,-0.149L0.125,-0.313C0.144,-0.358 0.169,-0.38 0.201,-0.38C0.215,-0.38 0.227,-0.376 0.237,-0.367C0.247,-0.358 0.251,-0.347 0.251,-0.334C0.251,-0.324 0.249,-0.313 0.244,-0.3L0.187,-0.162L0.182,-0.147C0.179,-0.139 0.177,-0.132 0.177,-0.128C0.176,-0.113 0.186,-0.106 0.205,-0.106C0.245,-0.106 0.272,-0.122 0.286,-0.155L0.347,-0.305C0.365,-0.351 0.391,-0.374 0.424,-0.374C0.438,-0.374 0.449,-0.369 0.459,-0.36C0.469,-0.351 0.474,-0.34 0.474,-0.327C0.474,-0.317 0.469,-0.301 0.461,-0.28L0.39,-0.106Z" style="fill:white;fill-rule:nonzero;"/>
        </g>
        <g transform="matrix(367.832,0,0,367.832,728.246,492.656)">
            <path d="M0.182,-0.106L0.237,-0.106C0.278,-0.106 0.298,-0.092 0.298,-0.063C0.298,-0.043 0.291,-0.028 0.277,-0.017C0.262,-0.006 0.242,-0 0.216,-0L0.138,-0C0.11,-0 0.087,-0.006 0.071,-0.018C0.054,-0.029 0.046,-0.045 0.046,-0.065C0.046,-0.076 0.049,-0.09 0.056,-0.106L0.137,-0.305L0.142,-0.318C0.157,-0.355 0.181,-0.374 0.214,-0.374C0.228,-0.374 0.24,-0.369 0.25,-0.36C0.26,-0.351 0.265,-0.34 0.265,-0.327C0.265,-0.317 0.26,-0.301 0.251,-0.279L0.182,-0.106ZM0.246,-0.529C0.265,-0.529 0.281,-0.523 0.294,-0.51C0.307,-0.496 0.314,-0.48 0.314,-0.461C0.314,-0.443 0.307,-0.427 0.294,-0.413C0.281,-0.4 0.265,-0.394 0.246,-0.394C0.227,-0.394 0.211,-0.4 0.198,-0.413C0.185,-0.427 0.178,-0.443 0.178,-0.461C0.178,-0.48 0.185,-0.496 0.198,-0.51C0.211,-0.523 0.227,-0.529 0.246,-0.529Z" style="fill:white;fill-rule:nonzero;"/>
        </g>
        <g transform="matrix(367.832,0,0,367.832,817.26,492.656)">
            <path d="M0.152,-0.038L0.024,0.275C0.007,0.319 -0.019,0.34 -0.053,0.34C-0.066,0.34 -0.077,0.336 -0.086,0.327C-0.095,0.319 -0.1,0.308 -0.1,0.296C-0.1,0.286 -0.096,0.271 -0.088,0.25L0.147,-0.33C0.16,-0.359 0.18,-0.374 0.21,-0.374C0.23,-0.374 0.247,-0.364 0.259,-0.344C0.282,-0.368 0.309,-0.38 0.342,-0.38C0.376,-0.38 0.404,-0.367 0.425,-0.342C0.446,-0.316 0.457,-0.282 0.457,-0.239C0.457,-0.159 0.432,-0.094 0.382,-0.043C0.366,-0.027 0.349,-0.015 0.332,-0.009C0.314,-0.003 0.29,-0 0.259,-0C0.226,-0 0.203,-0.002 0.191,-0.007C0.178,-0.011 0.165,-0.022 0.152,-0.038ZM0.192,-0.138C0.2,-0.123 0.208,-0.114 0.215,-0.11C0.222,-0.106 0.234,-0.104 0.25,-0.104C0.273,-0.104 0.291,-0.112 0.304,-0.129C0.331,-0.164 0.344,-0.2 0.344,-0.237C0.344,-0.268 0.329,-0.284 0.299,-0.284C0.266,-0.284 0.242,-0.265 0.228,-0.227C0.226,-0.223 0.225,-0.219 0.224,-0.216L0.192,-0.138Z" style="fill:white;fill-rule:nonzero;"/>
        </g>
        <g transform="matrix(367.832,0,0,367.832,967.161,492.656)">
            <path d="M0.272,-0.38C0.319,-0.38 0.358,-0.365 0.388,-0.335C0.419,-0.306 0.434,-0.267 0.434,-0.221C0.434,-0.186 0.426,-0.152 0.41,-0.117C0.394,-0.083 0.374,-0.056 0.348,-0.035C0.331,-0.022 0.314,-0.013 0.296,-0.008C0.278,-0.003 0.252,-0 0.22,-0C0.167,-0 0.131,-0.006 0.112,-0.019C0.069,-0.049 0.047,-0.093 0.047,-0.152C0.047,-0.214 0.069,-0.267 0.114,-0.313C0.158,-0.358 0.211,-0.38 0.272,-0.38ZM0.26,-0.276C0.236,-0.276 0.214,-0.264 0.194,-0.241C0.174,-0.217 0.165,-0.191 0.165,-0.162C0.165,-0.124 0.186,-0.105 0.228,-0.105C0.253,-0.105 0.272,-0.113 0.285,-0.128C0.307,-0.153 0.318,-0.182 0.318,-0.214C0.318,-0.233 0.313,-0.248 0.302,-0.259C0.292,-0.271 0.278,-0.276 0.26,-0.276Z" style="fill:white;fill-rule:nonzero;"/>
        </g>
    </g>
</svg>
