<?xml version="1.0" encoding="UTF-8" standalone="no"?>
<!DOCTYPE svg PUBLIC "-//W3C//DTD SVG 1.1//EN" "http://www.w3.org/Graphics/SVG/1.1/DTD/svg11.dtd">
<svg width="100%" height="100%" viewBox="0 0 1527 581" version="1.1" xmlns="http://www.w3.org/2000/svg" xmlns:xlink="http://www.w3.org/1999/xlink" xml:space="preserve" xmlns:serif="http://www.serif.com/" style="fill-rule:evenodd;clip-rule:evenodd;stroke-linejoin:round;stroke-miterlimit:2;">
    <g transform="matrix(1.49593,0,0,1.49593,-159.56,-370.234)">
        <path d="M313.209,357.772L349.489,269.945C353.441,260.246 357.392,254.079 361.343,251.445C365.295,248.811 372.658,247.494 383.435,247.494L476.111,247.494C492.635,247.494 500.897,253.122 500.897,264.377C500.897,271.8 498.173,277.997 492.725,282.966C487.277,287.935 480.542,290.42 472.519,290.42L391.158,290.42L363.858,357.772L390.978,357.772C404.389,357.772 411.094,363.579 411.094,375.194C411.094,382.258 408.34,388.275 402.832,393.244C397.324,398.213 390.619,400.698 382.716,400.698L346.436,400.698L306.564,498.762L435.341,498.762C448.751,498.762 455.457,504.39 455.457,515.645C455.457,523.069 452.733,529.265 447.285,534.234C441.837,539.203 435.101,541.688 427.079,541.688L289.142,541.688L286.807,546.717C278.425,565.396 271.87,578.507 267.14,586.051C262.41,593.594 256.214,600.898 248.551,607.963C228.555,626.282 205.565,635.442 179.582,635.442C158.389,635.442 140.937,629.156 127.227,616.584C113.517,604.011 106.662,588.026 106.662,568.629C106.662,556.535 109.596,545.22 115.463,534.683C121.33,524.147 129.293,515.945 139.351,510.077C152.402,502.534 170.063,498.762 192.334,498.762L255.915,498.762L295.787,400.698L289.86,400.698C276.45,400.698 269.744,394.83 269.744,383.096C269.744,376.032 272.498,370.045 278.006,365.136C283.514,360.226 290.219,357.772 298.122,357.772L313.209,357.772ZM238.493,541.688L191.077,541.688C167.609,541.688 155.874,550.01 155.874,566.653C155.874,573.478 158.479,579.196 163.687,583.806C168.896,588.415 175.332,590.72 182.995,590.72C193.771,590.72 204.099,586.35 213.977,577.609C223.855,568.868 232.027,556.895 238.493,541.688Z" style="fill:url(#_Linear1);fill-rule:nonzero;"/>
        <path d="M509.268,578.507L529.025,578.507C544.231,578.507 551.835,583.895 551.835,594.672C551.835,601.976 549.17,607.633 543.842,611.644C538.514,615.656 531,617.661 521.302,617.661L488.075,617.661C479.932,617.661 473.347,615.626 468.318,611.555C463.289,607.484 460.774,602.155 460.774,595.57C460.774,590.78 462.451,584.255 465.803,575.993L502.802,484.933C496.336,490.081 488.793,492.656 480.172,492.656C468.198,492.656 458.23,488.076 450.268,478.916C442.305,469.756 438.324,458.351 438.324,444.701C438.324,432.129 441.168,419.197 446.855,405.906C452.543,392.615 459.817,381.719 468.677,373.218C483.046,359.568 499.988,352.743 519.506,352.743C535.91,352.743 549.29,357.442 559.647,366.842C570.005,376.241 575.183,388.424 575.183,403.392C575.183,411.773 572.848,421.652 568.179,433.027L509.268,578.507ZM518.967,445.24L531.36,414.527C532.677,411.175 533.335,407.882 533.335,404.649C533.335,401.057 531.689,398.033 528.396,395.579C525.103,393.124 521.062,391.897 516.273,391.897C508.13,391.897 500.407,396.567 493.103,405.906C485.8,415.246 482.148,425.124 482.148,435.541C482.148,447.275 488.374,453.142 500.827,453.142C504.538,453.142 508.28,452.304 512.052,450.628C515.824,448.952 518.129,447.156 518.967,445.24Z" style="fill:url(#_Linear2);fill-rule:nonzero;"/>
        <path d="M705.507,453.502L726.341,453.502C734.603,453.502 740.47,454.729 743.942,457.184C747.415,459.638 749.151,463.679 749.151,469.307C749.151,476.611 746.487,482.328 741.158,486.459C735.83,490.59 728.376,492.656 718.797,492.656L686.648,492.656C676.59,492.656 669.885,488.764 666.532,480.981C659.947,488.764 651.685,492.656 641.747,492.656L615.524,492.656C604.987,492.656 596.246,489.363 589.302,482.777C582.357,476.192 578.885,467.87 578.885,457.812C578.885,452.065 580.441,445.359 583.554,437.696L607.981,377.708C614.806,361.065 624.145,352.743 635.999,352.743C641.148,352.743 645.518,354.389 649.11,357.682C652.703,360.975 654.499,365.016 654.499,369.805C654.499,373.397 653.541,377.528 651.625,382.198L649.649,387.047L630.791,433.206L628.815,438.594C627.737,441.708 627.139,444.042 627.019,445.599C626.779,450.987 630.252,453.681 637.436,453.681C652.283,453.681 662.162,447.694 667.071,435.721L689.522,380.402C696.227,363.639 705.686,355.257 717.899,355.257C722.928,355.257 727.239,356.934 730.831,360.286C734.423,363.639 736.219,367.65 736.219,372.32C736.219,376.032 734.663,381.779 731.549,389.562L705.507,453.502Z" style="fill:url(#_Linear3);fill-rule:nonzero;"/>
        <path d="M795.059,453.502L815.355,453.502C830.442,453.502 837.985,458.83 837.985,469.487C837.985,476.79 835.321,482.478 829.993,486.549C824.664,490.62 817.211,492.656 807.632,492.656L779.075,492.656C768.538,492.656 760.246,490.5 754.199,486.19C748.152,481.879 745.129,476.012 745.129,468.588C745.129,464.637 746.386,459.608 748.901,453.502L778.536,380.582L780.511,375.553C786.019,362.022 794.88,355.257 807.093,355.257C812.122,355.257 816.462,356.934 820.114,360.286C823.766,363.639 825.592,367.65 825.592,372.32C825.592,376.151 823.976,382.019 820.743,389.921L795.059,453.502ZM818.767,297.963C825.712,297.963 831.609,300.388 836.459,305.237C841.308,310.086 843.733,315.984 843.733,322.928C843.733,329.873 841.308,335.77 836.459,340.619C831.609,345.469 825.712,347.893 818.767,347.893C811.823,347.893 805.926,345.469 801.076,340.619C796.227,335.77 793.802,329.873 793.802,322.928C793.802,315.984 796.227,310.086 801.076,305.237C805.926,300.388 811.823,297.963 818.767,297.963Z" style="fill:url(#_Linear4);fill-rule:nonzero;"/>
        <path d="M873.118,478.646L826.24,593.953C819.775,609.878 810.315,617.841 797.863,617.841C793.073,617.841 788.972,616.254 785.56,613.081C782.147,609.908 780.441,606.107 780.441,601.676C780.441,597.964 781.938,592.337 784.931,584.793L871.501,371.422C875.931,360.645 883.595,355.257 894.491,355.257C902.034,355.257 908.021,358.849 912.451,366.034C920.833,357.173 931.07,352.743 943.164,352.743C955.736,352.743 965.884,357.502 973.607,367.021C981.33,376.541 985.192,389.083 985.192,404.649C985.192,434.104 976.032,458.111 957.712,476.671C951.725,482.777 945.559,486.968 939.212,489.243C932.866,491.518 924.006,492.656 912.631,492.656C900.418,492.656 892.006,491.817 887.396,490.141C882.786,488.465 878.027,484.633 873.118,478.646ZM887.845,442.007C890.839,447.275 893.682,450.688 896.376,452.244C899.071,453.801 903.351,454.579 909.218,454.579C917.72,454.579 924.365,451.406 929.155,445.06C938.853,432.248 943.703,419.077 943.703,405.547C943.703,393.932 938.195,388.125 927.179,388.125C915.085,388.125 906.404,395.13 901.136,409.139C900.537,410.696 900.058,412.013 899.699,413.09L887.845,442.007Z" style="fill:url(#_Linear5);fill-rule:nonzero;"/>
        <path d="M1067.2,352.743C1084.56,352.743 1098.84,358.251 1110.04,369.267C1121.23,380.282 1126.83,394.292 1126.83,411.294C1126.83,424.106 1123.9,436.828 1118.03,449.46C1112.16,462.093 1104.56,472.181 1095.22,479.724C1088.99,484.633 1082.56,488.016 1075.91,489.872C1069.27,491.728 1059.96,492.656 1047.98,492.656C1028.47,492.656 1015.3,490.321 1008.47,485.651C992.425,474.635 984.403,458.351 984.403,436.798C984.403,414.048 992.605,394.351 1009.01,377.708C1025.41,361.065 1044.81,352.743 1067.2,352.743ZM1062.89,390.999C1054.03,390.999 1045.95,395.369 1038.64,404.11C1031.34,412.851 1027.69,422.49 1027.69,433.027C1027.69,446.916 1035.47,453.861 1051.04,453.861C1060.14,453.861 1067.14,451.047 1072.05,445.419C1080.19,436.2 1084.26,425.663 1084.26,413.809C1084.26,406.984 1082.29,401.476 1078.34,397.285C1074.38,393.094 1069.24,390.999 1062.89,390.999Z" style="fill:url(#_Linear6);fill-rule:nonzero;"/>
    </g>
    <defs>
        <linearGradient id="_Linear1" x1="0" y1="0" x2="1" y2="0" gradientUnits="userSpaceOnUse" gradientTransform="matrix(567.399,-596.983,596.983,567.399,506.164,691.24)"><stop offset="0" style="stop-color:black;stop-opacity:1"/><stop offset="0.25" style="stop-color:rgb(0,19,65);stop-opacity:1"/><stop offset="1" style="stop-color:rgb(0,52,175);stop-opacity:1"/></linearGradient>
        <linearGradient id="_Linear2" x1="0" y1="0" x2="1" y2="0" gradientUnits="userSpaceOnUse" gradientTransform="matrix(567.399,-596.983,596.983,567.399,506.164,691.24)"><stop offset="0" style="stop-color:black;stop-opacity:1"/><stop offset="0.25" style="stop-color:rgb(0,19,65);stop-opacity:1"/><stop offset="1" style="stop-color:rgb(0,52,175);stop-opacity:1"/></linearGradient>
        <linearGradient id="_Linear3" x1="0" y1="0" x2="1" y2="0" gradientUnits="userSpaceOnUse" gradientTransform="matrix(567.399,-596.983,596.983,567.399,506.164,691.24)"><stop offset="0" style="stop-color:black;stop-opacity:1"/><stop offset="0.25" style="stop-color:rgb(0,19,65);stop-opacity:1"/><stop offset="1" style="stop-color:rgb(0,52,175);stop-opacity:1"/></linearGradient>
        <linearGradient id="_Linear4" x1="0" y1="0" x2="1" y2="0" gradientUnits="userSpaceOnUse" gradientTransform="matrix(567.399,-596.983,596.983,567.399,506.164,691.24)"><stop offset="0" style="stop-color:black;stop-opacity:1"/><stop offset="0.25" style="stop-color:rgb(0,19,65);stop-opacity:1"/><stop offset="1" style="stop-color:rgb(0,52,175);stop-opacity:1"/></linearGradient>
        <linearGradient id="_Linear5" x1="0" y1="0" x2="1" y2="0" gradientUnits="userSpaceOnUse" gradientTransform="matrix(567.399,-596.983,596.983,567.399,506.164,691.24)"><stop offset="0" style="stop-color:black;stop-opacity:1"/><stop offset="0.25" style="stop-color:rgb(0,19,65);stop-opacity:1"/><stop offset="1" style="stop-color:rgb(0,52,175);stop-opacity:1"/></linearGradient>
        <linearGradient id="_Linear6" x1="0" y1="0" x2="1" y2="0" gradientUnits="userSpaceOnUse" gradientTransform="matrix(567.399,-596.983,596.983,567.399,506.164,691.24)"><stop offset="0" style="stop-color:black;stop-opacity:1"/><stop offset="0.25" style="stop-color:rgb(0,19,65);stop-opacity:1"/><stop offset="1" style="stop-color:rgb(0,52,175);stop-opacity:1"/></linearGradient>
    </defs>
</svg>
